<?xml version="1.0" encoding="UTF-8"?>
<svg id="Capa_3" xmlns="http://www.w3.org/2000/svg" viewBox="0 0 1674.18 1594.49">
  <path d="M1660.73,23.67c-13.27-16.77-34.21-25.58-55.49-23.32L323.14,136.43c-25.89,2.75-47.34,21.29-53.82,46.49L16.93,1165.18c-5.02,19.56-.27,40.34,12.77,55.77,13.04,15.43,32.75,23.58,52.86,21.89l613.25-51.56c-26.92,156.3-115.86,306.67-117.12,308.79-13.08,21.82-11.59,49.4,3.77,69.69,11.97,15.82,30.5,24.73,49.73,24.73,5.44,0,10.94-.71,16.36-2.19,257.5-70,415.59-292.63,494.22-438.61l115.91-9.75c24.47-2.06,45.46-18.29,53.61-41.46L1670.65,83.04c7.09-20.18,3.35-42.59-9.92-59.37Z" style="fill: #eb7700;"/>
  <path d="M1549.46,23.86L267.35,159.95,14.97,1142.2l688.23-57.87c-6.23,197.42-133.39,409.3-133.39,409.3,258.71-70.33,411.02-317.96,471.12-437.7l150.14-12.62L1549.46,23.86Z" style="fill: #faca56;"/>
  <path d="M1549.46,23.86l-1.58-14.88L265.77,145.07c-6.2.66-11.36,5.12-12.92,11.16L.47,1138.48c-1.21,4.7-.07,9.68,3.07,13.38,3.13,3.71,7.85,5.66,12.69,5.25l688.23-57.87-1.25-14.91-14.96-.47c-2.96,95.7-35.67,196.71-67.87,273.37-16.08,38.34-31.99,70.62-43.85,93.27-5.93,11.32-10.84,20.23-14.26,26.28-1.71,3.03-3.05,5.34-3.95,6.89-.45.77-.79,1.34-1.02,1.73l-.25.42-.07.12c-3.14,5.23-2.78,11.87.9,16.73,3.68,4.86,9.97,7.01,15.86,5.41,66.47-18.07,126.01-47.51,178.77-83.28,79.16-53.67,143.13-121.52,193.07-187.25,49.95-65.73,85.87-129.38,108.73-174.91l-13.38-6.71,1.25,14.91,150.15-12.62c5.89-.5,10.9-4.37,12.86-9.95L1563.57,28.83c1.71-4.86.82-10.21-2.38-14.25-3.2-4.04-8.19-6.14-13.31-5.6l1.58,14.88-14.12-4.96-355.17,1010.3-140.48,11.82c-5.18.43-9.79,3.55-12.13,8.2-29.62,59.04-82.14,149.8-158.77,234.02-38.32,42.12-82.64,82.6-133.06,116.78-50.43,34.19-106.95,62.07-169.83,79.17l3.93,14.45,12.84,7.7c.25-.43,32.35-53.93,65.32-132.53,32.94-78.64,66.92-182.27,70.19-284,.14-4.27-1.55-8.39-4.66-11.33-3.11-2.95-7.29-4.42-11.55-4.06l-667.24,56.1L279.26,173.74,1551.03,38.75l-1.58-14.88-14.12-4.96,14.12,4.96Z" style="fill: #261539;"/>
  <path d="M1321.67,716.02l-12.04-55.73c-3.09-14.3-14.37-25.41-28.72-28.28-14.34-2.86-29.03,3.05-37.38,15.07-1.96,2.83-3.89,5.57-5.78,8.21,1.03-7.45,1.99-14.59,2.88-21.44,1.24-9.56,2.21-18.31,2.91-25.98.78-8.55,1.15-15.38,1.15-20.9,0-8.93-.97-16.46-2.98-23.03-2.69-8.8-7.07-16.3-13.07-22.31-6.52-6.5-14.63-11.02-23.48-13.07-6.68-1.55-13.5-1.86-21.45-1.58-3.29-3.81-7.09-7.22-11.33-10.14-8.43-5.84-18.51-8.8-29.97-8.8-16.66,0-33.11,3.55-48.91,10.56-14.19,6.3-27.78,14.81-40.39,25.32-5.83,4.86-11.45,10.16-16.84,15.81-7.65-6.66-15.61-12.91-23.89-18.56-14.7-10.04-30.67-18.14-47.45-24.11-17.79-6.32-36.96-9.52-56.99-9.52-23.78,0-45.79,4.53-65.43,13.46-1.55.71-3.06,1.48-4.58,2.23l.15-.3c8.48-17.5,16.09-35.27,22.61-52.85,6.66-17.95,12.04-36.14,15.98-54.05,4.16-18.84,6.27-37.67,6.27-56,0-8.91-.71-17.84-2.1-26.55-1.68-10.42-4.72-20.1-9.07-28.82-5.45-10.87-13.15-19.82-22.89-26.61-10.95-7.63-24.02-11.5-38.84-11.5-17.46,0-34.47,5.08-50.56,15.1-13.43,8.37-26.22,19.72-38.05,33.75-10.75,12.77-21.07,27.79-30.68,44.64-4.77,8.38-9.38,17.15-13.81,26.22-3.22-2.87-6.61-5.66-10.16-8.38-13.32-10.16-28.97-19.47-46.53-27.68-16.91-7.89-35.3-14.7-54.66-20.24-19.07-5.45-39.2-9.72-59.81-12.71-38.77-5.6-78.16-6.07-114.84-.89-17.53,2.48-34.45,6.42-50.27,11.69-16.39,5.46-31.77,12.56-45.72,21.09-15,9.18-28.17,20.5-39.16,33.66-11.18,13.4-19.96,28.84-26.09,45.9-6.09,17-9.18,36.04-9.18,56.59,0,59.11,39.82,62.11,47.8,62.11,14.81,0,26.91-6.95,36.37-15.08-4.43,17.27-8.09,35.07-10.93,53.21-4.54,28.95-7.59,58.98-9.06,89.25-1.44,29.52-2.18,58.84-2.18,87.15,0,18.41,8.05,34.21,22.07,43.34,6.45,4.2,13.67,7.42,21.5,9.59,10.83,3.91,22.48,7.62,34.67,11.06,12.71,3.58,25.87,6.73,39.14,9.35,13.2,2.59,26.42,4.69,39.32,6.21,13.44,1.58,26.46,2.39,38.7,2.39,20.29,0,39.38-2.3,56.75-6.84,17.43-4.57,33.47-10.98,47.66-19.05,14.42-8.21,27.27-18.07,38.18-29.3,7.41-7.63,13.99-15.78,19.77-24.3,6.78,13.73,14.77,25.39,23.87,34.7,18.59,18.98,38.26,22.96,51.49,22.96,8.61,0,17.71-1.16,27.02-3.43,8.07-1.96,16.4-4.61,24.73-7.87,7.91-3.09,15.89-6.66,23.68-10.6,2.61-1.32,5.16-2.75,7.76-4.11,4.64,3.98,9.6,7.62,14.88,10.88,16.29,10.04,35.49,15.13,57.06,15.13,14.73,0,28.92-2.62,42.19-7.78,12.39-4.82,23.98-11.45,34.47-19.74,10.21-8.09,19.39-17.7,27.28-28.59,1.47-2.03,2.86-4.11,4.24-6.2,5.21,12.48,12.21,23.45,20.92,32.52,8.91,9.3,19.28,16.63,30.86,21.8-2.3,2.32-4.57,4.66-6.82,6.98-11.45,11.9-22.23,24.03-32.02,36.04-10.05,12.34-18.91,24.46-26.32,36.04-7.86,12.29-14.21,24.33-18.89,35.82-5.63,13.83-8.49,27.07-8.49,39.35,0,17.23,3.45,32.09,10.27,44.16,6.71,11.89,15.59,21.36,26.41,28.14,9.59,6.02,20.17,10.09,31.46,12.09,8.71,1.54,17.06,2.32,24.84,2.32,19.18,0,37.18-3.43,53.52-10.22,15.81-6.57,30.3-15.86,43.07-27.63,12.04-11.1,22.89-24.44,32.25-39.65,8.67-14.1,16.45-29.7,23.14-46.36,6.5-16.2,12.19-33.78,16.93-52.27,3.25-12.68,6.2-25.71,8.84-38.89,12.2-7.89,23.88-16.03,34.85-24.29,6.47-4.86,13.06-10.02,19.59-15.32,6.95-5.65,13.71-11.57,20.08-17.57,6.6-6.21,12.74-12.55,18.25-18.83,6.33-7.21,11.66-14.53,15.84-21.76,4.58-7.91,6.05-17.25,4.12-26.18Z" style="fill: #261539;"/>
  <path d="M248.54,450.67c-11.08,20.11-20.96,35.18-29.65,45.24-8.69,10.05-15.75,15.08-21.21,15.08-7.5,0-11.25-8.61-11.25-25.81s2.39-31.69,7.16-44.98c4.77-13.29,11.46-25.09,20.07-35.39,8.61-10.31,18.82-19.09,30.66-26.33,11.84-7.24,24.79-13.2,38.85-17.89,14.06-4.69,28.92-8.14,44.6-10.36,15.68-2.21,31.78-3.32,48.3-3.32,19.25,0,38.59,1.41,58.02,4.21,19.42,2.81,38.08,6.78,55.97,11.88,17.89,5.12,34.59,11.29,50.09,18.54,15.5,7.24,29.01,15.25,40.52,24.02,11.5,8.77,20.53,18.27,27.09,28.5,6.55,10.22,9.84,20.87,9.84,31.95,0,13.12-2.86,26.07-8.57,38.84-5.71,12.78-14.66,24.33-26.83,34.63-12.19,10.31-27.77,18.79-46.77,25.43-19,6.65-41.79,10.22-68.36,10.73,16.87,0,31.61,2.68,44.21,8.05,12.61,5.37,23.17,12.61,31.69,21.72,8.52,9.12,14.91,19.64,19.17,31.56,4.26,11.93,6.39,24.45,6.39,37.57,0,10.74-1.45,21.64-4.34,32.72-2.9,11.07-7.24,21.72-13.04,31.95-5.79,10.22-13.04,19.8-21.72,28.75-8.69,8.95-18.87,16.74-30.54,23.38-11.67,6.65-24.84,11.89-39.48,15.72-14.66,3.83-30.76,5.75-48.3,5.75-11.08,0-22.74-.72-35.02-2.17-12.27-1.45-24.66-3.41-37.18-5.88-12.53-2.48-24.84-5.41-36.93-8.82-12.1-3.41-23.52-7.07-34.25-10.99-4.77-1.19-8.99-2.98-12.66-5.37-3.66-2.38-5.49-6.64-5.49-12.77,0-28.28.72-57.25,2.17-86.9,1.44-29.65,4.38-58.61,8.82-86.9,4.43-28.28,10.81-55.25,19.16-80.89,8.35-25.64,19.42-48.6,33.22-68.88,12.1-8.35,23.09-12.52,32.97-12.52,12.44,0,22.84,6.99,31.18,20.96-7.84,10.57-14.53,22.32-20.06,35.27-5.54,12.95-10.18,26.54-13.93,40.76-3.75,14.23-6.77,28.75-9.07,43.58-2.3,14.82-4.14,29.3-5.5,43.45-.85,8.01-1.57,16.53-2.17,25.56-.59,9.03-1.15,18.23-1.66,27.6-.51,9.37-.89,18.7-1.15,27.99-.25,9.29-.38,18.19-.38,26.7,0,1.37.04,3.24.13,5.62.08,2.39.3,4.86.63,7.41.34,2.56.86,4.91,1.54,7.03.68,2.13,1.71,3.71,3.07,4.73,10.39,3.41,21.55,6.3,33.48,8.69,11.93,2.38,23.85,3.58,35.78,3.58,14.48,0,28.54-1.75,42.17-5.24,13.63-3.49,25.73-9.03,36.29-16.61,10.57-7.58,19.04-17.29,25.43-29.14,6.39-11.84,9.59-26.2,9.59-43.07,0-9.88-1.88-18.1-5.62-24.66-3.75-6.56-8.65-12.05-14.69-16.48-6.05-4.43-12.95-7.96-20.71-10.61-7.75-2.64-15.68-5.02-23.77-7.15-8.09-2.13-16.02-4.22-23.77-6.26-7.76-2.04-14.66-4.64-20.7-7.79-6.05-3.15-10.95-7.07-14.69-11.76-3.75-4.69-5.62-10.78-5.62-18.27,0-3.58.21-6.69.64-9.33.42-2.64,1.44-4.81,3.06-6.52,1.62-1.7,4-2.98,7.16-3.83,3.15-.85,7.45-1.28,12.9-1.28,7.33,0,14.02.3,20.07.89,6.04.6,12.56.89,19.55.89,16.36,0,31.13-2,44.34-6.01,13.2-4,24.45-9.41,33.73-16.23,9.29-6.81,16.44-14.79,21.47-23.9,5.02-9.11,7.54-18.87,7.54-29.26,0-6.82-1.96-13.08-5.88-18.79-3.92-5.7-9.42-10.81-16.48-15.33-7.07-4.51-15.38-8.48-24.92-11.89-9.55-3.41-19.93-6.26-31.18-8.56-11.24-2.3-23.09-4-35.52-5.11-12.44-1.11-25.05-1.66-37.82-1.66-16.19,0-32.16.9-47.92,2.68-15.76,1.79-30.41,4.52-43.96,8.18s-25.56,8.27-36.04,13.8c-10.48,5.54-18.44,11.97-23.89,19.29Z" style="fill: #9b72ac;"/>
  <path d="M653.12,790.59c-9.2,0-17.77-4.04-25.69-12.14-7.92-8.09-14.82-18.96-20.7-32.59-5.88-13.62-10.48-29.43-13.8-47.41-3.32-17.97-4.98-36.84-4.98-56.61,0-15.16,1.11-31.65,3.32-49.45,2.21-17.8,5.45-36.16,9.71-55.07,4.26-18.91,9.33-37.91,15.21-57,5.88-19.08,12.52-37.4,19.93-54.95,7.41-17.55,15.46-33.95,24.15-49.2,8.69-15.25,17.8-28.54,27.34-39.87,9.55-11.33,19.51-20.23,29.91-26.71,10.39-6.47,20.96-9.71,31.69-9.71,7.32,0,13.37,1.66,18.14,4.98,4.77,3.32,8.52,7.71,11.25,13.16,2.72,5.46,4.64,11.63,5.75,18.53,1.11,6.9,1.66,13.93,1.66,21.09,0,16.02-1.83,32.33-5.5,48.95-3.67,16.61-8.61,33.31-14.82,50.09-6.23,16.78-13.42,33.61-21.6,50.47-8.18,16.87-16.7,33.61-25.55,50.22-8.86,16.61-17.77,32.97-26.71,49.07-8.95,16.1-17.34,31.82-25.18,47.15-.86,1.71-1.75,3.92-2.68,6.64-.94,2.73-1.84,5.67-2.69,8.82-.86,3.16-1.7,6.52-2.55,10.09-.86,3.58-1.53,7.07-2.05,10.48v3.57c0,4.44.47,8.74,1.41,12.91.93,4.18,2.09,7.92,3.45,11.25,1.36,3.32,2.82,5.97,4.35,7.92,1.54,1.96,2.98,2.94,4.35,2.94,3.23,0,6.94-.68,11.12-2.04,4.17-1.37,8.6-3.2,13.29-5.5,4.68-2.3,9.5-4.94,14.44-7.92,4.94-2.98,9.71-6.01,14.32-9.08,10.73-7.15,21.97-15.41,33.73-24.79l20.96,53.67c-15.17,10.91-30.16,20.62-44.98,29.13-6.48,3.58-13.16,7.12-20.07,10.61-6.9,3.49-13.84,6.61-20.83,9.33-6.99,2.73-13.8,4.9-20.45,6.52-6.65,1.62-12.87,2.43-18.66,2.43ZM653.37,586.13c7.67-13.63,15.8-28.96,24.41-46,8.6-17.04,16.74-34.59,24.41-52.65,7.66-18.05,14.31-36.07,19.93-54.05,5.62-17.98,9.2-34.71,10.73-50.22,0-4.94-.12-9.16-.38-12.65-.26-3.49-1.07-5.24-2.43-5.24-4.94,0-10.27,3.19-15.97,9.58-5.71,6.39-11.42,15.04-17.12,25.94-5.71,10.91-11.16,23.61-16.36,38.08-5.2,14.48-9.84,29.9-13.93,46.26-4.09,16.36-7.33,33.18-9.71,50.47-2.39,17.3-3.58,34.12-3.58,50.48Z" style="fill: #9b72ac;"/>
  <path d="M900.01,599.17c4.94,9.88,8.64,20.32,11.11,31.3,2.47,10.99,3.71,21.52,3.71,31.57s-1.11,20.19-3.32,30.41c-2.21,10.23-5.41,20.11-9.59,29.65-4.17,9.54-9.29,18.49-15.33,26.84-6.05,8.35-12.95,15.59-20.71,21.73-7.76,6.13-16.23,10.99-25.43,14.57-9.2,3.57-19,5.36-29.39,5.36-15,0-27.82-3.28-38.46-9.84-10.65-6.56-19.38-15.12-26.2-25.69-6.82-10.56-11.8-22.49-14.95-35.79-3.15-13.29-4.73-26.75-4.73-40.38,0-18.74,2.81-36.25,8.43-52.52,5.62-16.27,13.67-30.41,24.15-42.43,10.48-12.02,23.3-21.47,38.46-28.37,15.16-6.9,32.2-10.35,51.12-10.35,16.18,0,31.34,2.51,45.49,7.54,14.14,5.03,27.38,11.76,39.74,20.19,12.36,8.44,23.85,18.11,34.5,29.01,10.65,10.91,20.57,22.15,29.78,33.74l-4.86,36.04c-4.59-6.14-10.82-12.78-18.65-19.94-7.84-7.16-16.15-14.14-24.92-20.96-8.78-6.81-17.42-13.25-25.94-19.3-8.52-6.04-15.84-11.11-21.98-15.2l-2.04,2.81ZM821.03,741.52c5.79,0,11.41-2.94,16.87-8.82,5.45-5.88,10.23-13.29,14.31-22.23,4.09-8.95,7.37-18.82,9.84-29.65,2.46-10.82,3.7-21.17,3.7-31.05,0-7.83-.6-15.12-1.79-21.85-1.2-6.73-2.99-12.57-5.37-17.51-2.38-4.94-5.45-8.86-9.2-11.75-3.75-2.9-8.26-4.35-13.55-4.35-6.98,0-13.63,2.98-19.93,8.95-6.3,5.97-11.84,13.59-16.61,22.88-4.77,9.29-8.52,19.55-11.24,30.8-2.73,11.24-4.09,22.06-4.09,32.46,0,7.16.68,13.89,2.04,20.19,1.36,6.3,3.49,11.8,6.39,16.48,2.89,4.69,6.73,8.44,11.5,11.25,4.77,2.81,10.48,4.22,17.13,4.22Z" style="fill: #9b72ac;"/>
  <path d="M1071.76,763.76c-9.2,8.18-18.79,14.78-28.76,19.8-9.97,5.03-19.64,7.54-29.01,7.54-8.18,0-16.14-1.66-23.89-4.98-7.76-3.32-14.62-8.09-20.58-14.31-5.97-6.22-10.73-13.8-14.31-22.75-3.58-8.95-5.37-19.04-5.37-30.29,0-12.78,1.79-25.89,5.37-39.36,3.58-13.46,8.52-26.62,14.82-39.49,6.3-12.86,13.77-25,22.37-36.42,8.61-11.41,18.02-21.38,28.24-29.9,10.22-8.52,21-15.3,32.33-20.32,11.33-5.02,22.87-7.54,34.62-7.54,3.92,0,6.99.77,9.2,2.3,2.22,1.53,4.05,3.29,5.5,5.24,1.45,1.96,2.85,3.88,4.21,5.75,1.36,1.88,3.07,3.24,5.11,4.09,2.04.85,4.13,1.41,6.27,1.66,2.13.25,4.3.38,6.52.38,1.87,0,3.79-.04,5.75-.12,1.96-.08,3.88-.13,5.75-.13,2.55,0,4.94.25,7.15.77,2.21.51,4.18,1.63,5.88,3.33,1.7,1.7,3.03,4.09,3.96,7.15.94,3.07,1.4,7.25,1.4,12.53,0,4.43-.34,10.39-1.02,17.88-.68,7.5-1.62,15.85-2.81,25.05-1.2,9.21-2.51,18.96-3.96,29.27-1.45,10.31-2.94,20.41-4.46,30.29-3.59,23.51-7.67,48.64-12.27,75.39,5.11-2.89,10.64-6.47,16.61-10.73,5.96-4.25,12.6-9.97,19.93-17.12,7.33-7.16,15.5-16.14,24.54-26.96,9.04-10.82,19.17-24.32,30.42-40.51l12.26,56.73c-3.06,5.29-7.02,10.7-11.88,16.23-4.86,5.54-10.22,11.07-16.1,16.61-5.88,5.54-12,10.9-18.4,16.1-6.39,5.2-12.65,10.09-18.79,14.7-14.48,10.9-30.07,21.47-46.77,31.69-3.23,18.23-7.07,35.99-11.5,53.29-4.43,17.29-9.67,33.48-15.72,48.56-6.05,15.08-12.95,28.92-20.7,41.53-7.76,12.61-16.53,23.43-26.32,32.46-9.8,9.03-20.74,16.06-32.84,21.09-12.09,5.02-25.47,7.54-40.12,7.54-5.8,0-12.05-.6-18.79-1.79-6.73-1.19-12.95-3.58-18.65-7.16-5.71-3.57-10.44-8.69-14.19-15.34-3.75-6.64-5.62-15.51-5.62-26.58,0-7.67,1.96-16.32,5.88-25.94,3.92-9.62,9.29-19.77,16.1-30.41,6.81-10.65,14.9-21.72,24.28-33.23,9.37-11.5,19.55-22.96,30.54-34.37,10.99-11.42,22.49-22.66,34.5-33.74,12.01-11.08,24.15-21.64,36.41-31.69l6.91-23.77ZM977.44,978.7c7.15,0,13.93-2.09,20.32-6.27,6.39-4.18,12.27-9.67,17.64-16.48,5.37-6.82,10.26-14.57,14.7-23.27,4.43-8.69,8.35-17.59,11.76-26.7,3.4-9.12,6.3-18.02,8.69-26.71,2.38-8.69,4.25-16.45,5.62-23.26-6.65,4.43-13.42,9.71-20.32,15.85-6.9,6.13-13.63,12.73-20.18,19.8-6.56,7.07-12.78,14.35-18.66,21.86-5.88,7.49-11.04,14.69-15.46,21.59-4.43,6.9-7.93,13.33-10.48,19.3-2.55,5.96-3.83,10.9-3.83,14.82,0,6.3,3.4,9.46,10.22,9.46ZM1015.27,707.79c0,4.26.3,8.39.89,12.39.6,4.01,1.67,7.59,3.2,10.73,1.54,3.16,3.58,5.71,6.14,7.67,2.55,1.96,5.79,2.94,9.71,2.94,6.3,0,12.01-2.72,17.12-8.18,5.11-5.46,9.54-12.02,13.29-19.68,3.74-7.67,6.77-15.59,9.07-23.77,2.3-8.18,3.79-14.99,4.47-20.45l15.59-75.14c-6.99,0-13.8,1.75-20.45,5.24-6.64,3.49-12.91,8.22-18.79,14.19-5.88,5.96-11.29,12.78-16.23,20.44-4.94,7.67-9.2,15.72-12.77,24.15-3.58,8.43-6.34,16.91-8.3,25.43-1.96,8.52-2.94,16.52-2.94,24.02Z" style="fill: #9b72ac;"/>
  <path d="M324.76,548.3c4.34,9.32-5.48,17.63-15.75,17.07-10.29-.56-18.2-9.07-17.68-19.01.54-9.94,9.3-17.53,19.57-16.96,10.29.56,9.16,8.8,13.86,18.91Z" style="fill: #fff;"/>
  <path d="M297.16,577.77s-39.88,121.07-2.55,120.86c31.52-.18,19.84-79.2,18.59-118.7-.31-9.57-13.31-10.68-16.04-2.15Z" style="fill: #fff;"/>
  <path d="M645.67,506.38c3.9,8.38-4.92,15.84-14.14,15.33-9.24-.51-16.35-8.16-15.88-17.08.48-8.93,8.35-15.75,17.58-15.24,9.24.5,8.22,7.9,12.45,16.98Z" style="fill: #fff;"/>
  <path d="M620.88,532.86s-35.82,108.75-2.29,108.55c28.31-.16,17.81-71.14,16.7-106.62-.27-8.6-11.96-9.59-14.4-1.93Z" style="fill: #fff;"/>
  <path d="M1126.47,702.38c3.69,9.27-6.26,16.78-16.17,15.68-9.93-1.1-17.12-9.77-16.08-19.36,1.05-9.6,9.94-16.47,19.86-15.36,9.93,1.09,8.38,9,12.39,19.04Z" style="fill: #fff;"/>
  <path d="M1098.16,729.42s-45.15,115.04-9.01,116.85c30.52,1.53,23.49-75.59,24.42-113.89.22-9.29-12.31-11.05-15.41-2.95Z" style="fill: #fff;"/>
  <path d="M1061.24,373.77c-12.71-24.79-2.91-55.16,21.87-67.87,24.79-12.7,55.16-2.92,67.86,21.87,12.7,24.79,2.91,55.16-21.87,67.87-24.77,12.7-55.16,2.91-67.86-21.87Z" style="fill: #9b72ac;"/>
  <path d="M970.14,312.56c-7.96-15.52-1.83-34.56,13.7-42.52,15.52-7.95,34.57-1.81,42.52,13.7,7.95,15.53,1.81,34.56-13.71,42.52-15.53,7.96-34.55,1.82-42.51-13.7Z" style="fill: #e773a1;"/>
  <path d="M749.28,1027.56c-12.71-24.79-2.91-55.17,21.87-67.87,24.79-12.7,55.16-2.92,67.86,21.87,12.7,24.79,2.91,55.16-21.87,67.87-24.77,12.7-55.16,2.91-67.86-21.87Z" style="fill: #9b72ac;"/>
  <path d="M658.18,966.35c-7.95-15.52-1.83-34.56,13.7-42.52,15.52-7.95,34.57-1.81,42.52,13.71,7.96,15.53,1.81,34.56-13.7,42.52-15.53,7.96-34.56,1.82-42.52-13.7Z" style="fill: #e773a1;"/>
  <path d="M362.5,963.34c-6.44,17.15-5.02,58.73-5.02,58.73,0,0-29.45-28.6-48.14-35.62-19.33-7.26-64.5-6.38-64.5-6.38,0,0,33.91-31.53,40.33-49.65,7.19-20.3,3.75-66.8,3.75-66.8,0,0,30.07,36.88,48.32,44.43,15.13,6.26,64.78.65,64.78.65,0,0-31.68,33.75-39.52,54.63Z" style="fill: #55bbd4;"/>
  <path d="M1313.63,214.52c-6.44,17.15-5.02,58.73-5.02,58.73,0,0-29.45-28.6-48.13-35.62-19.34-7.26-64.51-6.38-64.51-6.38,0,0,33.91-31.52,40.33-49.64,7.18-20.3,3.75-66.81,3.75-66.81,0,0,30.07,36.88,48.32,44.43,15.13,6.26,64.78.65,64.78.65,0,0-31.68,33.75-39.52,54.63Z" style="fill: #55bbd4;"/>
</svg>