<svg width="24" height="14" viewBox="0 0 24 14" fill="none" xmlns="http://www.w3.org/2000/svg">
<g clip-path="url(#clip0_665_510)">
<path d="M11.0837 8.16667C11.9528 7.315 12.8337 6.29417 12.8337 4.95833C12.8337 4.10743 12.4956 3.29138 11.894 2.6897C11.2923 2.08802 10.4762 1.75 9.62533 1.75C8.59866 1.75 7.87533 2.04167 7.00033 2.91667C6.12533 2.04167 5.40199 1.75 4.37533 1.75C3.52442 1.75 2.70837 2.08802 2.10669 2.6897C1.50501 3.29138 1.16699 4.10743 1.16699 4.95833C1.16699 6.3 2.04199 7.32083 2.91699 8.16667L7.00033 12.25L11.0837 8.16667Z" stroke="black" stroke-width="2" stroke-linecap="round" stroke-linejoin="round"/>
</g>
<path d="M19 12L19 3" stroke="black" stroke-width="2" stroke-linecap="round" stroke-linejoin="round"/>
<path d="M23 7L19 3L15 7" stroke="black" stroke-width="2" stroke-linecap="round" stroke-linejoin="round"/>
<defs>
<clipPath id="clip0_665_510">
<rect width="14" height="14" fill="white"/>
</clipPath>
</defs>
</svg>
