<svg width="29" height="19" viewBox="0 0 29 19" fill="none" xmlns="http://www.w3.org/2000/svg">
<path d="M24 14L24 5" stroke="black" stroke-width="2" stroke-linecap="round" stroke-linejoin="round"/>
<path d="M28 9L24 5L20 9" stroke="black" stroke-width="2" stroke-linecap="round" stroke-linejoin="round"/>
<path d="M1.63249 9.77566C1.56651 9.59792 1.56651 9.4024 1.63249 9.22466C2.27509 7.66655 3.36586 6.33432 4.76652 5.39687C6.16718 4.45943 7.81465 3.95898 9.50007 3.95898C11.1855 3.95898 12.833 4.45943 14.2336 5.39687C15.6343 6.33432 16.7251 7.66655 17.3677 9.22466C17.4336 9.4024 17.4336 9.59792 17.3677 9.77566C16.7251 11.3338 15.6343 12.666 14.2336 13.6035C12.833 14.5409 11.1855 15.0413 9.50007 15.0413C7.81465 15.0413 6.16718 14.5409 4.76652 13.6035C3.36586 12.666 2.27509 11.3338 1.63249 9.77566Z" stroke="black" stroke-width="2" stroke-linecap="round" stroke-linejoin="round"/>
<path d="M9.5 11.875C10.8117 11.875 11.875 10.8117 11.875 9.5C11.875 8.18832 10.8117 7.125 9.5 7.125C8.18832 7.125 7.125 8.18832 7.125 9.5C7.125 10.8117 8.18832 11.875 9.5 11.875Z" stroke="black" stroke-width="2" stroke-linecap="round" stroke-linejoin="round"/>
</svg>
